<svg width="497" height="322" viewBox="0 0 497 322" fill="none" xmlns="http://www.w3.org/2000/svg">
<rect width="497" height="322" fill="white"/>
<path d="M71.25 99.125H48.625V82.1875H71.25C74.3333 82.1875 76.8333 81.6667 78.75 80.625C80.6667 79.5833 82.0625 78.1458 82.9375 76.3125C83.8542 74.4375 84.3125 72.3333 84.3125 70C84.3125 67.5 83.8542 65.1875 82.9375 63.0625C82.0625 60.9375 80.6667 59.2292 78.75 57.9375C76.8333 56.6042 74.3333 55.9375 71.25 55.9375H56.875V130H34.9375V39H71.25C78.5417 39 84.8125 40.3333 90.0625 43C95.3542 45.6667 99.4167 49.3333 102.25 54C105.083 58.625 106.5 63.9167 106.5 69.875C106.5 75.75 105.083 80.875 102.25 85.25C99.4167 89.625 95.3542 93.0417 90.0625 95.5C84.8125 97.9167 78.5417 99.125 71.25 99.125ZM178.438 113.125V130H132.438V113.125H178.438ZM140.25 39V130H118.312V39H140.25ZM227.5 58.125L205.312 130H181.75L215.188 39H230.125L227.5 58.125ZM245.875 130L223.625 58.125L220.75 39H235.875L269.5 130H245.875ZM245 96.0625V113H198.312V96.0625H245ZM323.062 105.812C323.062 104.396 322.854 103.125 322.438 102C322.021 100.833 321.25 99.75 320.125 98.75C319 97.75 317.375 96.75 315.25 95.75C313.167 94.7083 310.417 93.625 307 92.5C303 91.1667 299.146 89.6667 295.438 88C291.729 86.2917 288.417 84.3125 285.5 82.0625C282.583 79.7708 280.271 77.1042 278.562 74.0625C276.854 70.9792 276 67.3958 276 63.3125C276 59.3958 276.875 55.875 278.625 52.75C280.375 49.5833 282.812 46.8958 285.938 44.6875C289.104 42.4375 292.812 40.7292 297.062 39.5625C301.312 38.3542 305.958 37.75 311 37.75C317.667 37.75 323.542 38.9167 328.625 41.25C333.75 43.5417 337.75 46.8125 340.625 51.0625C343.542 55.2708 345 60.25 345 66H323.188C323.188 63.7083 322.708 61.6875 321.75 59.9375C320.833 58.1875 319.438 56.8125 317.562 55.8125C315.688 54.8125 313.333 54.3125 310.5 54.3125C307.75 54.3125 305.438 54.7292 303.562 55.5625C301.688 56.3958 300.271 57.5208 299.312 58.9375C298.354 60.3125 297.875 61.8333 297.875 63.5C297.875 64.875 298.25 66.125 299 67.25C299.792 68.3333 300.896 69.3542 302.312 70.3125C303.771 71.2708 305.521 72.1875 307.562 73.0625C309.646 73.9375 311.979 74.7917 314.562 75.625C319.396 77.1667 323.688 78.8958 327.438 80.8125C331.229 82.6875 334.417 84.8333 337 87.25C339.625 89.625 341.604 92.3333 342.938 95.375C344.312 98.4167 345 101.854 345 105.688C345 109.771 344.208 113.396 342.625 116.562C341.042 119.729 338.771 122.417 335.812 124.625C332.854 126.792 329.312 128.438 325.188 129.562C321.062 130.688 316.458 131.25 311.375 131.25C306.708 131.25 302.104 130.667 297.562 129.5C293.062 128.292 288.979 126.458 285.312 124C281.646 121.5 278.708 118.312 276.5 114.438C274.333 110.521 273.25 105.875 273.25 100.5H295.25C295.25 103.167 295.604 105.417 296.312 107.25C297.021 109.083 298.062 110.562 299.438 111.688C300.812 112.771 302.5 113.562 304.5 114.062C306.5 114.521 308.792 114.75 311.375 114.75C314.167 114.75 316.417 114.354 318.125 113.562C319.833 112.729 321.083 111.646 321.875 110.312C322.667 108.938 323.062 107.438 323.062 105.812ZM400.375 39V130H378.438V39H400.375ZM427.75 39V55.9375H351.688V39H427.75ZM460.375 39V130H438.5V39H460.375ZM71.25 249.125H48.625V232.188H71.25C74.3333 232.188 76.8333 231.667 78.75 230.625C80.6667 229.583 82.0625 228.146 82.9375 226.312C83.8542 224.438 84.3125 222.333 84.3125 220C84.3125 217.5 83.8542 215.188 82.9375 213.062C82.0625 210.938 80.6667 209.229 78.75 207.938C76.8333 206.604 74.3333 205.938 71.25 205.938H56.875V280H34.9375V189H71.25C78.5417 189 84.8125 190.333 90.0625 193C95.3542 195.667 99.4167 199.333 102.25 204C105.083 208.625 106.5 213.917 106.5 219.875C106.5 225.75 105.083 230.875 102.25 235.25C99.4167 239.625 95.3542 243.042 90.0625 245.5C84.8125 247.917 78.5417 249.125 71.25 249.125ZM145.75 208.125L123.562 280H100L133.438 189H148.375L145.75 208.125ZM164.125 280L141.875 208.125L139 189H154.125L187.75 280H164.125ZM163.25 246.062V263H116.562V246.062H163.25ZM216.375 189V280H194.438V189H216.375ZM270.688 189L235.438 235.125L214.812 257.688L210.812 237.562L224 217.562L243.625 189H270.688ZM244.75 280L221.25 239L238.312 226.438L270.688 280H244.75Z" fill="#004D90"/>
<path d="M362.195 185.699V187H348.625V185.699H362.195ZM349.258 161.406V187H347.816V161.406H349.258ZM367.697 167.98V187H366.291V167.98H367.697ZM365.852 162.215C365.852 161.898 365.957 161.629 366.168 161.406C366.391 161.172 366.672 161.055 367.012 161.055C367.34 161.055 367.615 161.172 367.838 161.406C368.061 161.629 368.172 161.898 368.172 162.215C368.172 162.531 368.061 162.801 367.838 163.023C367.615 163.234 367.34 163.34 367.012 163.34C366.672 163.34 366.391 163.234 366.168 163.023C365.957 162.801 365.852 162.531 365.852 162.215ZM375.01 172.006V187H373.604V167.98H374.975L375.01 172.006ZM374.781 176.031L374.078 175.223C374.172 174.215 374.406 173.254 374.781 172.34C375.168 171.426 375.678 170.617 376.311 169.914C376.955 169.211 377.711 168.654 378.578 168.244C379.457 167.834 380.436 167.629 381.514 167.629C382.463 167.629 383.312 167.758 384.062 168.016C384.824 168.262 385.469 168.654 385.996 169.193C386.523 169.721 386.928 170.412 387.209 171.268C387.49 172.123 387.631 173.148 387.631 174.344V187H386.225V174.379C386.225 172.949 386.014 171.842 385.592 171.057C385.17 170.271 384.584 169.721 383.834 169.404C383.084 169.076 382.223 168.912 381.25 168.912C380.102 168.912 379.123 169.164 378.314 169.668C377.506 170.16 376.844 170.787 376.328 171.549C375.824 172.299 375.449 173.078 375.203 173.887C374.957 174.695 374.816 175.41 374.781 176.031ZM387.613 174.467L386.664 174.133C386.758 173.277 386.998 172.463 387.385 171.689C387.783 170.904 388.305 170.213 388.949 169.615C389.594 169.006 390.35 168.525 391.217 168.174C392.096 167.811 393.068 167.629 394.135 167.629C395.107 167.629 395.975 167.764 396.736 168.033C397.51 168.291 398.154 168.707 398.67 169.281C399.197 169.844 399.602 170.57 399.883 171.461C400.164 172.34 400.305 173.406 400.305 174.66V187H398.898V174.643C398.898 173.143 398.688 171.977 398.266 171.145C397.844 170.312 397.258 169.732 396.508 169.404C395.758 169.064 394.891 168.9 393.906 168.912C392.863 168.924 391.955 169.117 391.182 169.492C390.408 169.867 389.764 170.342 389.248 170.916C388.732 171.49 388.34 172.094 388.07 172.727C387.801 173.348 387.648 173.928 387.613 174.467ZM407.529 167.98V187H406.123V167.98H407.529ZM405.684 162.215C405.684 161.898 405.789 161.629 406 161.406C406.223 161.172 406.504 161.055 406.844 161.055C407.172 161.055 407.447 161.172 407.67 161.406C407.893 161.629 408.004 161.898 408.004 162.215C408.004 162.531 407.893 162.801 407.67 163.023C407.447 163.234 407.172 163.34 406.844 163.34C406.504 163.34 406.223 163.234 406 163.023C405.789 162.801 405.684 162.531 405.684 162.215ZM420.344 167.98V169.246H411.238V167.98H420.344ZM414.754 162.953H416.16V182.412C416.16 183.432 416.283 184.205 416.529 184.732C416.787 185.248 417.121 185.6 417.531 185.787C417.953 185.963 418.404 186.051 418.885 186.051C419.225 186.051 419.535 186.033 419.816 185.998C420.109 185.963 420.402 185.922 420.695 185.875L420.818 187.105C420.561 187.188 420.227 187.246 419.816 187.281C419.406 187.328 419.043 187.352 418.727 187.352C417.93 187.352 417.232 187.205 416.635 186.912C416.037 186.619 415.574 186.115 415.246 185.4C414.918 184.674 414.754 183.678 414.754 182.412V162.953ZM432.104 187.352C430.908 187.352 429.801 187.123 428.781 186.666C427.762 186.197 426.871 185.547 426.109 184.715C425.348 183.871 424.75 182.875 424.316 181.727C423.895 180.578 423.684 179.318 423.684 177.947V177.174C423.684 175.756 423.895 174.467 424.316 173.307C424.75 172.135 425.336 171.127 426.074 170.283C426.812 169.428 427.662 168.771 428.623 168.314C429.596 167.857 430.633 167.629 431.734 167.629C432.848 167.629 433.855 167.834 434.758 168.244C435.66 168.654 436.434 169.229 437.078 169.967C437.723 170.705 438.215 171.584 438.555 172.604C438.895 173.623 439.064 174.748 439.064 175.979V177.156H424.562V175.873H437.676V175.645C437.664 174.449 437.418 173.342 436.938 172.322C436.469 171.303 435.795 170.482 434.916 169.861C434.037 169.229 432.977 168.912 431.734 168.912C430.738 168.912 429.83 169.123 429.01 169.545C428.201 169.967 427.504 170.553 426.918 171.303C426.332 172.041 425.881 172.914 425.564 173.922C425.248 174.918 425.09 176.002 425.09 177.174V177.947C425.09 179.072 425.266 180.127 425.617 181.111C425.969 182.096 426.461 182.963 427.094 183.713C427.727 184.451 428.471 185.031 429.326 185.453C430.182 185.875 431.119 186.086 432.139 186.086C433.24 186.086 434.248 185.893 435.162 185.506C436.076 185.119 436.908 184.439 437.658 183.467L438.572 184.152C438.15 184.762 437.641 185.307 437.043 185.787C436.445 186.268 435.736 186.648 434.916 186.93C434.107 187.211 433.17 187.352 432.104 187.352ZM456.01 183.309V160H457.398V187H456.062L456.01 183.309ZM442.545 177.666V177.297C442.545 175.809 442.709 174.473 443.037 173.289C443.365 172.094 443.84 171.08 444.461 170.248C445.082 169.404 445.838 168.76 446.729 168.314C447.631 167.857 448.65 167.629 449.787 167.629C450.854 167.629 451.803 167.799 452.635 168.139C453.467 168.467 454.188 168.941 454.797 169.562C455.406 170.172 455.904 170.893 456.291 171.725C456.689 172.545 456.982 173.453 457.17 174.449V181.006C457.029 181.885 456.766 182.711 456.379 183.484C456.004 184.246 455.506 184.92 454.885 185.506C454.275 186.08 453.543 186.531 452.688 186.859C451.832 187.188 450.854 187.352 449.752 187.352C448.627 187.352 447.619 187.117 446.729 186.648C445.838 186.18 445.082 185.518 444.461 184.662C443.84 183.807 443.365 182.787 443.037 181.604C442.709 180.42 442.545 179.107 442.545 177.666ZM443.969 177.297V177.666C443.969 178.873 444.086 179.986 444.32 181.006C444.566 182.025 444.93 182.91 445.41 183.66C445.902 184.41 446.518 184.996 447.256 185.418C448.006 185.84 448.885 186.051 449.893 186.051C451.182 186.051 452.271 185.816 453.162 185.348C454.053 184.879 454.762 184.258 455.289 183.484C455.828 182.711 456.203 181.855 456.414 180.918V174.713C456.285 174.115 456.08 173.482 455.799 172.814C455.529 172.135 455.148 171.502 454.656 170.916C454.176 170.33 453.549 169.855 452.775 169.492C452.002 169.117 451.053 168.93 449.928 168.93C448.908 168.93 448.023 169.141 447.273 169.562C446.535 169.984 445.92 170.57 445.428 171.32C444.936 172.07 444.566 172.955 444.32 173.975C444.086 174.994 443.969 176.102 443.969 177.297ZM361 227.699V229H347.43V227.699H361ZM348.062 203.406V229H346.621V203.406H348.062ZM366.502 209.98V229H365.096V209.98H366.502ZM364.656 204.215C364.656 203.898 364.762 203.629 364.973 203.406C365.195 203.172 365.477 203.055 365.816 203.055C366.145 203.055 366.42 203.172 366.643 203.406C366.865 203.629 366.977 203.898 366.977 204.215C366.977 204.531 366.865 204.801 366.643 205.023C366.42 205.234 366.145 205.34 365.816 205.34C365.477 205.34 365.195 205.234 364.973 205.023C364.762 204.801 364.656 204.531 364.656 204.215ZM384.361 225.502V215.676C384.361 214.68 384.15 213.824 383.729 213.109C383.307 212.395 382.691 211.85 381.883 211.475C381.074 211.088 380.084 210.895 378.912 210.895C377.822 210.895 376.844 211.088 375.977 211.475C375.121 211.85 374.447 212.365 373.955 213.021C373.463 213.678 373.217 214.41 373.217 215.219L371.811 215.201C371.811 214.475 371.98 213.777 372.32 213.109C372.672 212.441 373.164 211.85 373.797 211.334C374.441 210.807 375.197 210.391 376.064 210.086C376.943 209.781 377.904 209.629 378.947 209.629C380.283 209.629 381.461 209.857 382.48 210.314C383.512 210.76 384.314 211.434 384.889 212.336C385.463 213.238 385.75 214.363 385.75 215.711V225.098C385.75 225.777 385.797 226.463 385.891 227.154C385.984 227.846 386.113 228.402 386.277 228.824V229H384.748C384.619 228.555 384.52 228.01 384.449 227.365C384.391 226.721 384.361 226.1 384.361 225.502ZM384.818 218.207L384.854 219.42H380.213C379.041 219.42 377.992 219.531 377.066 219.754C376.141 219.977 375.355 220.293 374.711 220.703C374.066 221.113 373.574 221.6 373.234 222.162C372.895 222.725 372.725 223.357 372.725 224.061C372.725 224.787 372.918 225.455 373.305 226.064C373.691 226.674 374.236 227.16 374.939 227.523C375.643 227.875 376.457 228.051 377.383 228.051C378.648 228.051 379.768 227.834 380.74 227.4C381.725 226.955 382.551 226.357 383.219 225.607C383.887 224.846 384.373 223.967 384.678 222.971L385.293 223.99C385.094 224.611 384.783 225.238 384.361 225.871C383.939 226.504 383.395 227.084 382.727 227.611C382.059 228.127 381.273 228.549 380.371 228.877C379.469 229.193 378.443 229.352 377.295 229.352C376.088 229.352 375.033 229.129 374.131 228.684C373.24 228.227 372.549 227.605 372.057 226.82C371.564 226.023 371.318 225.115 371.318 224.096C371.318 223.217 371.518 222.414 371.916 221.688C372.314 220.961 372.889 220.34 373.639 219.824C374.4 219.297 375.32 218.898 376.398 218.629C377.488 218.348 378.713 218.207 380.072 218.207H384.818ZM391.656 202H393.062V225.309L393.01 229H391.656V202ZM406.527 219.297V219.666C406.527 221.107 406.363 222.42 406.035 223.604C405.719 224.787 405.25 225.807 404.629 226.662C404.02 227.518 403.27 228.18 402.379 228.648C401.488 229.117 400.475 229.352 399.338 229.352C398.248 229.352 397.27 229.188 396.402 228.859C395.547 228.531 394.809 228.08 394.188 227.506C393.566 226.92 393.062 226.246 392.676 225.484C392.301 224.711 392.037 223.885 391.885 223.006V216.449C392.084 215.453 392.383 214.545 392.781 213.725C393.18 212.893 393.684 212.172 394.293 211.562C394.902 210.941 395.623 210.467 396.455 210.139C397.299 209.799 398.248 209.629 399.303 209.629C400.451 209.629 401.471 209.857 402.361 210.314C403.264 210.76 404.02 211.404 404.629 212.248C405.25 213.08 405.719 214.094 406.035 215.289C406.363 216.473 406.527 217.809 406.527 219.297ZM405.104 219.666V219.297C405.104 218.102 404.986 216.994 404.752 215.975C404.518 214.955 404.154 214.07 403.662 213.32C403.182 212.57 402.566 211.984 401.816 211.562C401.066 211.141 400.182 210.93 399.162 210.93C398.037 210.93 397.088 211.117 396.314 211.492C395.553 211.855 394.926 212.33 394.434 212.916C393.953 213.502 393.572 214.135 393.291 214.814C393.021 215.482 392.822 216.115 392.693 216.713V222.918C392.904 223.844 393.273 224.699 393.801 225.484C394.34 226.258 395.055 226.879 395.945 227.348C396.848 227.816 397.932 228.051 399.197 228.051C400.205 228.051 401.078 227.84 401.816 227.418C402.566 226.996 403.182 226.41 403.662 225.66C404.143 224.91 404.5 224.025 404.734 223.006C404.98 221.986 405.104 220.873 405.104 219.666ZM413.154 209.98V229H411.748V209.98H413.154ZM411.309 204.215C411.309 203.898 411.414 203.629 411.625 203.406C411.848 203.172 412.129 203.055 412.469 203.055C412.797 203.055 413.072 203.172 413.295 203.406C413.518 203.629 413.629 203.898 413.629 204.215C413.629 204.531 413.518 204.801 413.295 205.023C413.072 205.234 412.797 205.34 412.469 205.34C412.129 205.34 411.848 205.234 411.625 205.023C411.414 204.801 411.309 204.531 411.309 204.215ZM420.854 202V229H419.447V202H420.854ZM428.553 209.98V229H427.146V209.98H428.553ZM426.707 204.215C426.707 203.898 426.812 203.629 427.023 203.406C427.246 203.172 427.527 203.055 427.867 203.055C428.195 203.055 428.471 203.172 428.693 203.406C428.916 203.629 429.027 203.898 429.027 204.215C429.027 204.531 428.916 204.801 428.693 205.023C428.471 205.234 428.195 205.34 427.867 205.34C427.527 205.34 427.246 205.234 427.023 205.023C426.812 204.801 426.707 204.531 426.707 204.215ZM441.367 209.98V211.246H432.262V209.98H441.367ZM435.777 204.953H437.184V224.412C437.184 225.432 437.307 226.205 437.553 226.732C437.811 227.248 438.145 227.6 438.555 227.787C438.977 227.963 439.428 228.051 439.908 228.051C440.248 228.051 440.559 228.033 440.84 227.998C441.133 227.963 441.426 227.922 441.719 227.875L441.842 229.105C441.584 229.188 441.25 229.246 440.84 229.281C440.43 229.328 440.066 229.352 439.75 229.352C438.953 229.352 438.256 229.205 437.658 228.912C437.061 228.619 436.598 228.115 436.27 227.4C435.941 226.674 435.777 225.678 435.777 224.412V204.953ZM451.896 227.137L458.225 209.98H459.754L451.457 232.111C451.305 232.533 451.111 233.002 450.877 233.518C450.643 234.045 450.338 234.549 449.963 235.029C449.588 235.51 449.102 235.902 448.504 236.207C447.918 236.523 447.191 236.682 446.324 236.682C446.125 236.682 445.861 236.658 445.533 236.611C445.217 236.576 444.982 236.529 444.83 236.471L444.812 235.24C444.977 235.275 445.193 235.305 445.463 235.328C445.732 235.363 445.92 235.381 446.025 235.381C446.799 235.381 447.443 235.229 447.959 234.924C448.486 234.631 448.926 234.209 449.277 233.658C449.629 233.119 449.939 232.48 450.209 231.742L451.896 227.137ZM445.375 209.98L452.125 227.26L452.529 228.701L451.457 229.369L443.846 209.98H445.375ZM337.357 263.107H338.781C338.605 264.9 338.125 266.412 337.34 267.643C336.555 268.861 335.5 269.787 334.176 270.42C332.863 271.041 331.316 271.352 329.535 271.352C328.117 271.352 326.828 271.082 325.668 270.543C324.52 269.992 323.529 269.219 322.697 268.223C321.877 267.215 321.244 266.014 320.799 264.619C320.354 263.225 320.131 261.684 320.131 259.996V256.41C320.131 254.711 320.354 253.17 320.799 251.787C321.244 250.393 321.877 249.197 322.697 248.201C323.529 247.193 324.525 246.42 325.686 245.881C326.857 245.33 328.164 245.055 329.605 245.055C331.352 245.055 332.881 245.365 334.193 245.986C335.506 246.607 336.555 247.533 337.34 248.764C338.125 249.982 338.605 251.488 338.781 253.281H337.357C337.182 251.793 336.777 250.539 336.145 249.52C335.523 248.488 334.668 247.703 333.578 247.164C332.488 246.625 331.164 246.355 329.605 246.355C328.375 246.355 327.268 246.596 326.283 247.076C325.299 247.545 324.455 248.225 323.752 249.115C323.049 249.994 322.504 251.049 322.117 252.279C321.742 253.498 321.555 254.863 321.555 256.375V259.996C321.555 261.484 321.742 262.85 322.117 264.092C322.492 265.322 323.025 266.383 323.717 267.273C324.408 268.152 325.246 268.838 326.23 269.33C327.215 269.811 328.316 270.051 329.535 270.051C331.094 270.051 332.424 269.805 333.525 269.312C334.627 268.809 335.494 268.041 336.127 267.01C336.771 265.979 337.182 264.678 337.357 263.107ZM342.613 261.824V261.156C342.613 259.762 342.812 258.484 343.211 257.324C343.621 256.164 344.195 255.162 344.934 254.318C345.672 253.463 346.551 252.801 347.57 252.332C348.602 251.863 349.744 251.629 350.998 251.629C352.252 251.629 353.395 251.863 354.426 252.332C355.457 252.801 356.342 253.463 357.08 254.318C357.83 255.162 358.404 256.164 358.803 257.324C359.201 258.484 359.4 259.762 359.4 261.156V261.824C359.4 263.219 359.201 264.496 358.803 265.656C358.404 266.816 357.836 267.824 357.098 268.68C356.359 269.523 355.475 270.18 354.443 270.648C353.424 271.117 352.287 271.352 351.033 271.352C349.768 271.352 348.619 271.117 347.588 270.648C346.568 270.18 345.684 269.523 344.934 268.68C344.195 267.824 343.621 266.816 343.211 265.656C342.812 264.496 342.613 263.219 342.613 261.824ZM344.02 261.156V261.824C344.02 262.926 344.172 263.975 344.477 264.971C344.793 265.955 345.25 266.834 345.848 267.607C346.445 268.369 347.178 268.973 348.045 269.418C348.912 269.852 349.908 270.068 351.033 270.068C352.135 270.068 353.119 269.852 353.986 269.418C354.854 268.973 355.58 268.369 356.166 267.607C356.764 266.834 357.215 265.955 357.52 264.971C357.836 263.975 357.994 262.926 357.994 261.824V261.156C357.994 260.078 357.836 259.047 357.52 258.062C357.215 257.078 356.764 256.199 356.166 255.426C355.568 254.652 354.836 254.043 353.969 253.598C353.102 253.141 352.111 252.912 350.998 252.912C349.885 252.912 348.895 253.141 348.027 253.598C347.172 254.043 346.439 254.652 345.83 255.426C345.232 256.199 344.781 257.078 344.477 258.062C344.172 259.047 344.02 260.078 344.02 261.156ZM365.166 256.006V271H363.76V251.98H365.131L365.166 256.006ZM364.938 260.031L364.234 259.223C364.328 258.215 364.562 257.254 364.938 256.34C365.324 255.426 365.834 254.617 366.467 253.914C367.111 253.211 367.867 252.654 368.734 252.244C369.613 251.834 370.592 251.629 371.67 251.629C372.619 251.629 373.469 251.758 374.219 252.016C374.98 252.262 375.625 252.654 376.152 253.193C376.68 253.721 377.084 254.412 377.365 255.268C377.646 256.123 377.787 257.148 377.787 258.344V271H376.381V258.379C376.381 256.949 376.17 255.842 375.748 255.057C375.326 254.271 374.74 253.721 373.99 253.404C373.24 253.076 372.379 252.912 371.406 252.912C370.258 252.912 369.279 253.164 368.471 253.668C367.662 254.16 367 254.787 366.484 255.549C365.98 256.299 365.605 257.078 365.359 257.887C365.113 258.695 364.973 259.41 364.938 260.031ZM377.77 258.467L376.82 258.133C376.914 257.277 377.154 256.463 377.541 255.689C377.939 254.904 378.461 254.213 379.105 253.615C379.75 253.006 380.506 252.525 381.373 252.174C382.252 251.811 383.225 251.629 384.291 251.629C385.264 251.629 386.131 251.764 386.893 252.033C387.666 252.291 388.311 252.707 388.826 253.281C389.354 253.844 389.758 254.57 390.039 255.461C390.32 256.34 390.461 257.406 390.461 258.66V271H389.055V258.643C389.055 257.143 388.844 255.977 388.422 255.145C388 254.312 387.414 253.732 386.664 253.404C385.914 253.064 385.047 252.9 384.062 252.912C383.02 252.924 382.111 253.117 381.338 253.492C380.564 253.867 379.92 254.342 379.404 254.916C378.889 255.49 378.496 256.094 378.227 256.727C377.957 257.348 377.805 257.928 377.77 258.467ZM397.422 255.637V278.312H396.016V251.98H397.369L397.422 255.637ZM410.887 261.297V261.666C410.887 263.107 410.723 264.42 410.395 265.604C410.078 266.787 409.609 267.807 408.988 268.662C408.379 269.518 407.629 270.18 406.738 270.648C405.848 271.117 404.834 271.352 403.697 271.352C402.607 271.352 401.629 271.193 400.762 270.877C399.895 270.549 399.145 270.092 398.512 269.506C397.879 268.92 397.369 268.252 396.982 267.502C396.596 266.74 396.326 265.926 396.174 265.059V258.449C396.373 257.453 396.672 256.545 397.07 255.725C397.48 254.893 397.99 254.172 398.6 253.562C399.221 252.941 399.953 252.467 400.797 252.139C401.641 251.799 402.596 251.629 403.662 251.629C404.799 251.629 405.812 251.857 406.703 252.314C407.605 252.76 408.367 253.404 408.988 254.248C409.609 255.08 410.078 256.094 410.395 257.289C410.723 258.473 410.887 259.809 410.887 261.297ZM409.463 261.666V261.297C409.463 260.102 409.34 258.994 409.094 257.975C408.859 256.955 408.496 256.07 408.004 255.32C407.512 254.57 406.891 253.984 406.141 253.562C405.391 253.141 404.506 252.93 403.486 252.93C402.373 252.93 401.43 253.117 400.656 253.492C399.883 253.855 399.244 254.33 398.74 254.916C398.248 255.502 397.867 256.135 397.598 256.814C397.328 257.482 397.129 258.115 397 258.713V264.953C397.211 265.891 397.586 266.746 398.125 267.52C398.664 268.293 399.379 268.914 400.27 269.383C401.172 269.84 402.256 270.068 403.521 270.068C404.541 270.068 405.42 269.857 406.158 269.436C406.896 269.014 407.512 268.428 408.004 267.678C408.496 266.928 408.859 266.043 409.094 265.023C409.34 263.992 409.463 262.873 409.463 261.666ZM427.674 267.502V257.676C427.674 256.68 427.463 255.824 427.041 255.109C426.619 254.395 426.004 253.85 425.195 253.475C424.387 253.088 423.396 252.895 422.225 252.895C421.135 252.895 420.156 253.088 419.289 253.475C418.434 253.85 417.76 254.365 417.268 255.021C416.775 255.678 416.529 256.41 416.529 257.219L415.123 257.201C415.123 256.475 415.293 255.777 415.633 255.109C415.984 254.441 416.477 253.85 417.109 253.334C417.754 252.807 418.51 252.391 419.377 252.086C420.256 251.781 421.217 251.629 422.26 251.629C423.596 251.629 424.773 251.857 425.793 252.314C426.824 252.76 427.627 253.434 428.201 254.336C428.775 255.238 429.062 256.363 429.062 257.711V267.098C429.062 267.777 429.109 268.463 429.203 269.154C429.297 269.846 429.426 270.402 429.59 270.824V271H428.061C427.932 270.555 427.832 270.01 427.762 269.365C427.703 268.721 427.674 268.1 427.674 267.502ZM428.131 260.207L428.166 261.42H423.525C422.354 261.42 421.305 261.531 420.379 261.754C419.453 261.977 418.668 262.293 418.023 262.703C417.379 263.113 416.887 263.6 416.547 264.162C416.207 264.725 416.037 265.357 416.037 266.061C416.037 266.787 416.23 267.455 416.617 268.064C417.004 268.674 417.549 269.16 418.252 269.523C418.955 269.875 419.77 270.051 420.695 270.051C421.961 270.051 423.08 269.834 424.053 269.4C425.037 268.955 425.863 268.357 426.531 267.607C427.199 266.846 427.686 265.967 427.99 264.971L428.605 265.99C428.406 266.611 428.096 267.238 427.674 267.871C427.252 268.504 426.707 269.084 426.039 269.611C425.371 270.127 424.586 270.549 423.684 270.877C422.781 271.193 421.756 271.352 420.607 271.352C419.4 271.352 418.346 271.129 417.443 270.684C416.553 270.227 415.861 269.605 415.369 268.82C414.877 268.023 414.631 267.115 414.631 266.096C414.631 265.217 414.83 264.414 415.229 263.688C415.627 262.961 416.201 262.34 416.951 261.824C417.713 261.297 418.633 260.898 419.711 260.629C420.801 260.348 422.025 260.207 423.385 260.207H428.131ZM436.393 256.041V271H435.004V251.98H436.375L436.393 256.041ZM436.129 260.031L435.443 259.223C435.549 258.215 435.795 257.254 436.182 256.34C436.58 255.426 437.102 254.617 437.746 253.914C438.402 253.211 439.164 252.654 440.031 252.244C440.91 251.834 441.877 251.629 442.932 251.629C443.881 251.629 444.73 251.764 445.48 252.033C446.23 252.291 446.863 252.701 447.379 253.264C447.906 253.826 448.305 254.553 448.574 255.443C448.844 256.322 448.979 257.395 448.979 258.66V271H447.59V258.66C447.59 257.16 447.385 256 446.975 255.18C446.564 254.348 445.99 253.762 445.252 253.422C444.525 253.082 443.676 252.912 442.703 252.912C441.578 252.912 440.605 253.164 439.785 253.668C438.977 254.16 438.309 254.787 437.781 255.549C437.254 256.299 436.85 257.078 436.568 257.887C436.299 258.695 436.152 259.41 436.129 260.031ZM460.58 269.137L466.908 251.98H468.438L460.141 274.111C459.988 274.533 459.795 275.002 459.561 275.518C459.326 276.045 459.021 276.549 458.646 277.029C458.271 277.51 457.785 277.902 457.188 278.207C456.602 278.523 455.875 278.682 455.008 278.682C454.809 278.682 454.545 278.658 454.217 278.611C453.9 278.576 453.666 278.529 453.514 278.471L453.496 277.24C453.66 277.275 453.877 277.305 454.146 277.328C454.416 277.363 454.604 277.381 454.709 277.381C455.482 277.381 456.127 277.229 456.643 276.924C457.17 276.631 457.609 276.209 457.961 275.658C458.312 275.119 458.623 274.48 458.893 273.742L460.58 269.137ZM454.059 251.98L460.809 269.26L461.213 270.701L460.141 271.369L452.529 251.98H454.059Z" fill="black"/>
</svg>
